<svg version="1.0" xmlns="http://www.w3.org/2000/svg"
 width="46.875000pt" height="83.375000pt" viewBox="0 0 750.000000 1334.000000"
 preserveAspectRatio="xMidYMid meet">

<g transform="translate(0.000000,1334.000000) scale(0.100000,-0.100000)"
fill="#ffffff" stroke="none">
<path d="M3045 10970 c-22 -5 -76 -22 -119 -39 -44 -17 -105 -38 -135 -47 -31
-9 -135 -53 -232 -99 -97 -46 -205 -96 -240 -110 -276 -117 -619 -333 -838
-531 -58 -52 -294 -311 -328 -359 -30 -44 -47 -107 -39 -150 12 -62 65 -108
206 -180 160 -81 185 -101 199 -163 25 -104 -14 -192 -231 -524 -136 -209
-196 -323 -222 -424 -22 -87 -22 -405 0 -483 46 -165 172 -236 449 -252 282
-16 301 -16 322 3 18 17 19 15 31 -85 27 -241 87 -363 276 -565 123 -131 144
-173 160 -309 l7 -52 -31 16 c-24 12 -61 14 -178 11 -143 -3 -149 -4 -213 -36
-130 -66 -331 -267 -399 -401 -44 -88 -53 -158 -47 -359 4 -142 9 -190 26
-242 52 -162 175 -261 347 -277 35 -3 64 -9 64 -12 0 -3 -7 -51 -16 -106 -8
-55 -17 -201 -21 -325 -4 -183 -2 -246 11 -339 48 -324 210 -623 435 -801 115
-92 271 -155 453 -185 50 -8 92 -16 93 -17 1 -2 -3 -38 -8 -81 l-11 -79 -40 7
c-116 18 -193 24 -306 25 -111 0 -129 -3 -164 -23 -73 -41 -80 -69 -87 -338
-5 -173 -11 -251 -23 -293 -17 -59 -22 -65 -236 -301 -123 -136 -149 -182
-157 -275 -7 -85 8 -110 67 -110 48 0 71 25 81 92 10 63 26 86 170 244 63 69
133 148 156 176 72 88 92 190 93 463 0 94 3 181 7 194 l6 24 136 -6 c75 -3
163 -11 196 -17 113 -20 101 -7 108 -122 4 -57 10 -133 13 -171 l7 -67 -60 0
c-33 0 -82 -7 -110 -15 -95 -28 -164 -136 -179 -277 -10 -99 6 -140 84 -217
123 -122 311 -209 527 -247 123 -21 355 -24 440 -5 79 17 279 82 435 141 69
26 208 73 309 104 256 79 299 104 345 196 51 100 64 271 28 352 -41 94 -131
149 -265 163 l-67 7 0 143 c0 129 2 145 21 169 61 77 201 -29 301 -229 14 -27
44 -108 67 -178 45 -143 68 -183 117 -203 43 -18 160 -18 248 1 38 8 72 12 77
9 15 -9 38 -103 64 -262 14 -86 39 -229 55 -317 16 -88 32 -177 35 -197 10
-67 79 -99 123 -58 31 29 34 55 18 145 -8 44 -28 159 -45 255 -65 366 -72 402
-92 456 -26 68 -69 119 -112 133 -26 9 -53 7 -127 -9 -52 -11 -114 -20 -137
-20 l-41 0 -37 117 c-65 206 -170 381 -280 464 -66 49 -164 83 -217 74 l-38
-7 0 45 c0 40 24 199 35 237 3 8 47 30 102 49 204 71 419 153 500 191 353 165
503 412 597 980 44 265 96 722 96 841 0 42 2 47 23 46 40 -1 195 31 225 47 98
50 207 298 232 525 23 213 -25 345 -164 448 -101 76 -223 121 -396 148 l-36 5
-33 163 c-88 441 -290 1199 -382 1437 -65 170 -161 285 -329 398 -65 43 -265
132 -298 132 -32 0 -72 -43 -72 -78 0 -40 31 -64 134 -106 115 -46 204 -104
287 -187 109 -108 146 -201 295 -742 127 -462 187 -720 258 -1112 128 -700
135 -1027 40 -1735 -86 -641 -195 -883 -468 -1034 -95 -54 -246 -112 -721
-279 -730 -257 -896 -297 -1230 -297 -230 0 -389 30 -531 99 -224 111 -412
392 -479 716 -23 110 -30 332 -16 505 27 346 85 544 286 985 155 340 196 521
165 740 -16 112 -70 210 -190 339 -153 165 -195 235 -226 376 -39 182 -24 545
32 738 61 210 238 455 466 646 218 182 398 236 719 215 314 -21 771 -89 929
-138 96 -31 122 -30 150 3 19 24 17 72 -4 95 -51 56 -383 123 -876 178 -200
22 -460 22 -555 1 -209 -48 -357 -133 -545 -315 -343 -330 -466 -587 -487
-1015 -3 -71 -7 -128 -8 -128 -1 0 -16 7 -32 15 -22 11 -79 17 -204 21 -277 9
-379 47 -408 149 -6 22 -11 108 -11 190 0 237 18 288 220 596 222 339 268 445
257 583 -13 146 -71 211 -292 323 -73 37 -115 64 -115 74 0 20 33 63 148 190
111 123 145 155 274 259 207 167 463 320 718 428 52 22 156 69 230 105 74 35
167 74 205 87 39 12 104 37 145 53 l75 31 225 1 c218 0 226 -1 270 -24 42 -22
99 -77 269 -255 111 -118 226 -163 392 -154 65 4 86 10 145 43 152 86 174 94
309 115 72 11 157 27 190 35 137 36 700 29 774 -10 56 -29 129 -170 155 -300
8 -44 27 -163 41 -265 31 -222 40 -252 106 -354 95 -149 123 -258 124 -486 0
-113 -4 -161 -14 -179 -15 -27 -179 -224 -322 -386 -53 -60 -164 -176 -248
-257 -83 -81 -151 -154 -151 -162 0 -31 24 -65 52 -77 47 -19 85 7 248 170
208 208 537 590 569 661 13 29 16 72 15 235 0 174 -3 211 -23 284 -33 125 -53
170 -116 270 l-57 90 -34 230 c-18 127 -40 260 -49 296 -21 93 -68 197 -120
271 -90 126 -190 148 -635 142 -239 -4 -286 -7 -361 -26 -48 -12 -128 -26
-179 -33 -117 -14 -183 -37 -295 -102 -86 -49 -93 -52 -160 -52 -133 1 -158
16 -345 205 -133 135 -177 173 -225 196 l-60 29 -235 2 c-129 1 -253 -2 -275
-7z m2627 -4029 c144 -37 257 -111 297 -195 26 -53 28 -181 5 -294 -22 -109
-81 -255 -118 -296 -27 -30 -41 -35 -105 -45 -40 -7 -76 -10 -78 -8 -2 3 -8
71 -13 153 -13 197 -59 564 -85 682 -7 27 0 28 97 3z m-3392 -537 c-27 -113
-47 -166 -144 -377 -98 -215 -145 -331 -177 -435 -22 -69 -25 -74 -75 -102
l-52 -29 -58 17 c-79 22 -133 76 -159 157 -16 50 -20 90 -20 240 0 165 2 184
22 228 51 110 228 293 337 348 60 30 63 30 193 27 72 -1 135 1 139 5 14 14 13
0 -6 -79z m1914 -2631 c-5 -10 -10 -213 -12 -452 l-3 -433 22 -24 c42 -45 129
-19 129 38 0 17 6 18 53 12 67 -8 118 -32 135 -64 18 -34 10 -162 -13 -219
-22 -53 -50 -67 -274 -135 -84 -26 -215 -70 -290 -98 -350 -129 -430 -149
-601 -149 -250 1 -453 62 -616 185 -80 60 -91 85 -69 167 22 89 36 107 87 112
85 10 96 6 110 -38 16 -49 51 -70 94 -55 52 18 53 26 41 271 -14 260 -15 514
-4 580 l8 47 112 7 c279 16 504 66 857 188 118 41 221 75 229 76 9 1 11 -4 5
-16z"/>
<path d="M4455 8204 c-74 -20 -109 -24 -203 -22 -103 2 -114 0 -134 -19 -27
-28 -28 -78 -1 -104 25 -26 143 -43 228 -33 105 11 278 61 298 85 24 30 21 66
-8 94 -30 31 -61 31 -180 -1z"/>
<path d="M3375 8041 c-33 -10 -91 -31 -130 -46 -105 -41 -163 -55 -235 -55
-87 0 -239 -19 -270 -33 -37 -18 -54 -60 -38 -94 20 -42 55 -55 119 -43 30 5
117 14 195 19 129 8 149 12 250 51 60 23 134 48 164 56 30 8 63 24 73 36 35
42 11 111 -43 122 -14 3 -52 -3 -85 -13z"/>
<path d="M4590 7659 c-330 -21 -387 -28 -446 -49 -72 -25 -97 -48 -97 -91 0
-44 33 -74 82 -72 l39 2 -14 -46 c-27 -90 -16 -164 34 -217 79 -84 202 -71
291 30 50 57 104 183 105 246 l1 48 60 0 c85 0 131 10 154 32 28 25 28 81 1
108 -22 22 -20 22 -210 9z m-156 -191 c-35 -116 -93 -198 -128 -185 -22 9 -20
33 9 126 l26 81 50 0 c48 0 50 -1 43 -22z"/>
<path d="M3186 7530 c-26 -5 -55 -12 -65 -16 -9 -4 -99 -10 -199 -13 l-184 -6
-24 -28 c-30 -35 -30 -59 0 -94 24 -28 26 -28 155 -31 l130 -4 -14 -22 c-38
-57 -26 -192 22 -254 60 -79 200 -96 285 -36 59 41 84 82 120 198 25 82 29
105 20 128 l-10 28 93 0 c107 0 139 10 156 51 15 37 -2 82 -37 98 -29 13 -371
13 -448 1z m109 -167 c-4 -10 -17 -53 -30 -96 -26 -88 -55 -127 -95 -127 -37
0 -50 18 -50 68 0 40 5 49 62 108 48 50 67 64 91 64 24 0 28 -3 22 -17z"/>
<path d="M3855 6910 c-33 -12 -128 -122 -179 -203 -60 -96 -126 -246 -211
-475 -39 -106 -84 -209 -107 -244 -54 -83 -61 -104 -48 -144 15 -45 53 -68
113 -66 67 1 127 22 307 107 85 41 178 79 205 86 28 6 62 18 77 26 51 25 48
106 -5 131 -40 19 -150 -14 -327 -99 -80 -38 -149 -69 -153 -69 -4 0 -1 12 7
28 7 15 43 106 79 202 121 325 174 430 281 553 43 51 59 78 59 99 0 48 -54 86
-98 68z"/>
<path d="M3855 5596 c-62 -20 -101 -43 -170 -101 l-64 -55 -58 15 c-84 22
-207 19 -262 -5 -52 -24 -162 -133 -245 -243 -88 -118 -89 -121 -76 -222 30
-237 122 -317 400 -345 226 -22 375 26 512 164 78 79 132 168 161 266 19 65
30 84 85 141 71 75 79 109 38 148 -28 26 -40 71 -20 71 28 0 67 46 67 79 0 40
-24 64 -87 85 -60 19 -222 21 -281 2z m148 -152 c-18 -7 -57 -30 -88 -49 -108
-70 -473 -243 -545 -259 -76 -18 -180 -21 -180 -7 0 6 39 51 88 100 l87 91 55
0 c31 0 82 -7 113 -15 86 -22 126 -19 178 13 24 16 50 36 58 46 21 25 90 71
126 84 17 6 55 10 85 10 l55 0 -32 -14z m-68 -246 c-8 -18 -22 -59 -30 -90
-32 -113 -136 -236 -245 -287 -45 -20 -74 -26 -156 -29 -171 -7 -302 25 -339
81 -8 13 -17 37 -21 53 l-6 30 129 12 c162 14 215 32 468 160 110 56 203 101
207 101 4 1 1 -14 -7 -31z"/>
<path d="M3190 1797 c-49 -25 -52 -51 -18 -172 31 -110 31 -110 37 -435 4
-235 10 -331 19 -347 27 -48 86 -57 121 -19 l23 24 -5 324 c-5 335 -7 351 -57
523 -27 96 -67 129 -120 102z"/>
<path d="M4040 1737 c-47 -24 -51 -51 -24 -162 13 -55 33 -185 44 -290 11
-104 27 -244 35 -310 8 -66 15 -146 15 -178 0 -48 4 -62 25 -82 30 -31 73 -32
103 -5 30 28 29 110 -3 389 -13 119 -29 260 -35 313 -15 130 -53 286 -76 308
-27 26 -55 31 -84 17z"/>
</g>
</svg>